<svg xmlns="http://www.w3.org/2000/svg" width="2688" height="40" viewBox="0.0 960.0 1344.0 20.0">
<style>text{font-family:'DejaVu Sans Mono','Menlo','Consolas','Noto Sans Mono CJK JP','Noto Sans JP','Meiryo',monospace;font-size:16px;white-space:pre}</style>
<rect width="1344.0" height="1000" fill="#ffffff"/>
<rect x="384.0" y="940" width="9.6" height="20" fill="#1f2328"/>
<rect x="864.0" y="940" width="9.6" height="20" fill="#1f2328"/>
<rect x="0.0" y="960" width="1344.0" height="20" fill="#1f2328"/>
<text x="0.0" y="975" fill="#ffffff">s</text>
<text x="9.6" y="975" fill="#ffffff">r</text>
<text x="19.2" y="975" fill="#ffffff">w</text>
<text x="28.8" y="975" fill="#ffffff">r</text>
<text x="38.4" y="975" fill="#ffffff">:</text>
<text x="48.0" y="975" fill="#ffffff">/</text>
<text x="57.6" y="975" fill="#ffffff">/</text>
<text x="67.2" y="975" fill="#ffffff">o</text>
<text x="76.8" y="975" fill="#ffffff">p</text>
<text x="86.4" y="975" fill="#ffffff">e</text>
<text x="96.0" y="975" fill="#ffffff">r</text>
<text x="105.6" y="975" fill="#ffffff">a</text>
<text x="115.2" y="975" fill="#ffffff">t</text>
<text x="124.8" y="975" fill="#ffffff">i</text>
<text x="134.4" y="975" fill="#ffffff">o</text>
<text x="144.0" y="975" fill="#ffffff">n</text>
<text x="153.6" y="975" fill="#ffffff">s</text>
<text x="393.6" y="975" fill="#ffffff" font-weight="bold" textLength="19.2" lengthAdjust="spacingAndGlyphs">前</text>
<text x="432.0" y="975" fill="#ffffff" font-weight="bold">⚠</text>
<text x="451.2" y="975" fill="#ffffff" font-weight="bold">s</text>
<text x="460.8" y="975" fill="#ffffff" font-weight="bold">r</text>
<text x="470.4" y="975" fill="#ffffff" font-weight="bold">w</text>
<text x="480.0" y="975" fill="#ffffff" font-weight="bold">r</text>
<text x="489.6" y="975" fill="#ffffff" font-weight="bold" textLength="19.2" lengthAdjust="spacingAndGlyphs">の</text>
<text x="508.8" y="975" fill="#ffffff" font-weight="bold" textLength="19.2" lengthAdjust="spacingAndGlyphs">外</text>
<text x="528.0" y="975" fill="#ffffff" font-weight="bold" textLength="19.2" lengthAdjust="spacingAndGlyphs">で</text>
<text x="547.2" y="975" fill="#ffffff" font-weight="bold" textLength="19.2" lengthAdjust="spacingAndGlyphs">変</text>
<text x="566.4" y="975" fill="#ffffff" font-weight="bold" textLength="19.2" lengthAdjust="spacingAndGlyphs">更</text>
<text x="585.6" y="975" fill="#ffffff" font-weight="bold" textLength="19.2" lengthAdjust="spacingAndGlyphs">：</text>
<text x="604.8" y="975" fill="#ffffff" font-weight="bold">s</text>
<text x="614.4" y="975" fill="#ffffff" font-weight="bold">t</text>
<text x="624.0" y="975" fill="#ffffff" font-weight="bold">a</text>
<text x="633.6" y="975" fill="#ffffff" font-weight="bold">t</text>
<text x="643.2" y="975" fill="#ffffff" font-weight="bold">s</text>
<text x="652.8" y="975" fill="#ffffff" font-weight="bold">.</text>
<text x="662.4" y="975" fill="#ffffff" font-weight="bold">g</text>
<text x="672.0" y="975" fill="#ffffff" font-weight="bold">o</text>
<text x="873.6" y="975" fill="#ffffff" textLength="19.2" lengthAdjust="spacingAndGlyphs">後</text>
<text x="912.0" y="975" fill="#ffffff">s</text>
<text x="921.6" y="975" fill="#ffffff">r</text>
<text x="931.2" y="975" fill="#ffffff">w</text>
<text x="940.8" y="975" fill="#ffffff">r</text>
<text x="969.6" y="975" fill="#ffffff">6</text>
<text x="979.2" y="975" fill="#ffffff">/</text>
<text x="988.8" y="975" fill="#ffffff">1</text>
<text x="998.4" y="975" fill="#ffffff">1</text>
<text x="1027.2" y="975" fill="#ffffff">[</text>
<text x="1036.8" y="975" fill="#ffffff">[</text>
<text x="1056.0" y="975" fill="#ffffff" textLength="19.2" lengthAdjust="spacingAndGlyphs">戻</text>
<text x="1075.2" y="975" fill="#ffffff" textLength="19.2" lengthAdjust="spacingAndGlyphs">る</text>
<text x="1113.6" y="975" fill="#ffffff">]</text>
<text x="1123.2" y="975" fill="#ffffff">]</text>
<text x="1142.4" y="975" fill="#ffffff" textLength="19.2" lengthAdjust="spacingAndGlyphs">進</text>
<text x="1161.6" y="975" fill="#ffffff" textLength="19.2" lengthAdjust="spacingAndGlyphs">む</text>
<text x="1200.0" y="975" fill="#ffffff">s</text>
<text x="1209.6" y="975" fill="#ffffff">t</text>
<text x="1219.2" y="975" fill="#ffffff">a</text>
<text x="1228.8" y="975" fill="#ffffff">t</text>
<text x="1238.4" y="975" fill="#ffffff">s</text>
<text x="1248.0" y="975" fill="#ffffff">.</text>
<text x="1257.6" y="975" fill="#ffffff">g</text>
<text x="1267.2" y="975" fill="#ffffff">o</text>
<text x="1276.8" y="975" fill="#ffffff">:</text>
<text x="1286.4" y="975" fill="#ffffff">1</text>
<text x="1296.0" y="975" fill="#ffffff">-</text>
<text x="1305.6" y="975" fill="#ffffff">1</text>
<text x="1315.2" y="975" fill="#ffffff">2</text>
<text x="1324.8" y="975" fill="#ffffff">6</text>
</svg>