<svg xmlns="http://www.w3.org/2000/svg" width="890" height="244" viewBox="0 0 890 244" role="img" aria-label="srwr init：すでに設定がある作業場（dark）" font-family="'DejaVu Sans Mono','Menlo','Consolas','Noto Sans Mono CJK JP','Noto Sans JP','Meiryo',monospace" font-size="16" white-space="pre">
<rect width="890" height="244" fill="#1e1e1e"/>
<rect width="890" height="28" fill="#2d2d2d"/>
<text x="12" y="19" fill="#8a8a8a" font-size="13" style="white-space:pre">srwr init：すでに設定がある作業場</text>
<text x="8.0" y="51" fill="#8a8a8a">$</text>
<text x="27.2" y="51" fill="#dcdcaa">s</text>
<text x="36.8" y="51" fill="#dcdcaa">r</text>
<text x="46.4" y="51" fill="#dcdcaa">w</text>
<text x="56.0" y="51" fill="#dcdcaa">r</text>
<text x="75.2" y="51" fill="#dcdcaa">i</text>
<text x="84.8" y="51" fill="#dcdcaa">n</text>
<text x="94.4" y="51" fill="#dcdcaa">i</text>
<text x="104.0" y="51" fill="#dcdcaa">t</text>
<text x="8.0" y="71" fill="#d4d4d4" textLength="19.2" lengthAdjust="spacingAndGlyphs">作</text>
<text x="27.2" y="71" fill="#d4d4d4" textLength="19.2" lengthAdjust="spacingAndGlyphs">業</text>
<text x="46.4" y="71" fill="#d4d4d4" textLength="19.2" lengthAdjust="spacingAndGlyphs">場</text>
<text x="65.6" y="71" fill="#d4d4d4" textLength="19.2" lengthAdjust="spacingAndGlyphs">：</text>
<text x="84.8" y="71" fill="#d4d4d4">/</text>
<text x="94.4" y="71" fill="#d4d4d4">h</text>
<text x="104.0" y="71" fill="#d4d4d4">o</text>
<text x="113.6" y="71" fill="#d4d4d4">m</text>
<text x="123.2" y="71" fill="#d4d4d4">e</text>
<text x="132.8" y="71" fill="#d4d4d4">/</text>
<text x="142.4" y="71" fill="#d4d4d4">m</text>
<text x="152.0" y="71" fill="#d4d4d4">e</text>
<text x="161.6" y="71" fill="#d4d4d4">/</text>
<text x="171.2" y="71" fill="#d4d4d4">p</text>
<text x="180.8" y="71" fill="#d4d4d4">r</text>
<text x="190.4" y="71" fill="#d4d4d4">o</text>
<text x="200.0" y="71" fill="#d4d4d4">j</text>
<text x="209.6" y="71" fill="#d4d4d4">e</text>
<text x="219.2" y="71" fill="#d4d4d4">c</text>
<text x="228.8" y="71" fill="#d4d4d4">t</text>
<text x="27.2" y="111" fill="#6a9955" textLength="19.2" lengthAdjust="spacingAndGlyphs">作</text>
<text x="46.4" y="111" fill="#6a9955" textLength="19.2" lengthAdjust="spacingAndGlyphs">っ</text>
<text x="65.6" y="111" fill="#6a9955" textLength="19.2" lengthAdjust="spacingAndGlyphs">た</text>
<text x="113.6" y="111" fill="#d4d4d4">.</text>
<text x="123.2" y="111" fill="#d4d4d4">s</text>
<text x="132.8" y="111" fill="#d4d4d4">r</text>
<text x="142.4" y="111" fill="#d4d4d4">w</text>
<text x="152.0" y="111" fill="#d4d4d4">r</text>
<text x="161.6" y="111" fill="#d4d4d4">/</text>
<text x="324.8" y="111" fill="#8a8a8a" textLength="19.2" lengthAdjust="spacingAndGlyphs">鍵</text>
<text x="353.6" y="111" fill="#8a8a8a">.</text>
<text x="363.2" y="111" fill="#8a8a8a">s</text>
<text x="372.8" y="111" fill="#8a8a8a">r</text>
<text x="382.4" y="111" fill="#8a8a8a">w</text>
<text x="392.0" y="111" fill="#8a8a8a">r</text>
<text x="401.6" y="111" fill="#8a8a8a">/</text>
<text x="411.2" y="111" fill="#8a8a8a">k</text>
<text x="420.8" y="111" fill="#8a8a8a">e</text>
<text x="430.4" y="111" fill="#8a8a8a">y</text>
<text x="449.6" y="111" fill="#8a8a8a" textLength="19.2" lengthAdjust="spacingAndGlyphs">を</text>
<text x="468.8" y="111" fill="#8a8a8a" textLength="19.2" lengthAdjust="spacingAndGlyphs">作</text>
<text x="488.0" y="111" fill="#8a8a8a" textLength="19.2" lengthAdjust="spacingAndGlyphs">り</text>
<text x="507.2" y="111" fill="#8a8a8a" textLength="19.2" lengthAdjust="spacingAndGlyphs">ま</text>
<text x="526.4" y="111" fill="#8a8a8a" textLength="19.2" lengthAdjust="spacingAndGlyphs">し</text>
<text x="545.6" y="111" fill="#8a8a8a" textLength="19.2" lengthAdjust="spacingAndGlyphs">た</text>
<text x="27.2" y="131" fill="#4fc1ff" textLength="19.2" lengthAdjust="spacingAndGlyphs">追</text>
<text x="46.4" y="131" fill="#4fc1ff" textLength="19.2" lengthAdjust="spacingAndGlyphs">記</text>
<text x="65.6" y="131" fill="#4fc1ff" textLength="19.2" lengthAdjust="spacingAndGlyphs">し</text>
<text x="84.8" y="131" fill="#4fc1ff" textLength="19.2" lengthAdjust="spacingAndGlyphs">た</text>
<text x="113.6" y="131" fill="#d4d4d4">.</text>
<text x="123.2" y="131" fill="#d4d4d4">m</text>
<text x="132.8" y="131" fill="#d4d4d4">c</text>
<text x="142.4" y="131" fill="#d4d4d4">p</text>
<text x="152.0" y="131" fill="#d4d4d4">.</text>
<text x="161.6" y="131" fill="#d4d4d4">j</text>
<text x="171.2" y="131" fill="#d4d4d4">s</text>
<text x="180.8" y="131" fill="#d4d4d4">o</text>
<text x="190.4" y="131" fill="#d4d4d4">n</text>
<text x="324.8" y="131" fill="#8a8a8a">s</text>
<text x="334.4" y="131" fill="#8a8a8a">r</text>
<text x="344.0" y="131" fill="#8a8a8a">w</text>
<text x="353.6" y="131" fill="#8a8a8a">r</text>
<text x="372.8" y="131" fill="#8a8a8a">m</text>
<text x="382.4" y="131" fill="#8a8a8a">c</text>
<text x="392.0" y="131" fill="#8a8a8a">p</text>
<text x="411.2" y="131" fill="#8a8a8a" textLength="19.2" lengthAdjust="spacingAndGlyphs">を</text>
<text x="430.4" y="131" fill="#8a8a8a" textLength="19.2" lengthAdjust="spacingAndGlyphs">登</text>
<text x="449.6" y="131" fill="#8a8a8a" textLength="19.2" lengthAdjust="spacingAndGlyphs">録</text>
<text x="468.8" y="131" fill="#8a8a8a" textLength="19.2" lengthAdjust="spacingAndGlyphs">し</text>
<text x="488.0" y="131" fill="#8a8a8a" textLength="19.2" lengthAdjust="spacingAndGlyphs">ま</text>
<text x="507.2" y="131" fill="#8a8a8a" textLength="19.2" lengthAdjust="spacingAndGlyphs">し</text>
<text x="526.4" y="131" fill="#8a8a8a" textLength="19.2" lengthAdjust="spacingAndGlyphs">た</text>
<text x="545.6" y="131" fill="#8a8a8a" textLength="19.2" lengthAdjust="spacingAndGlyphs">（</text>
<text x="564.8" y="131" fill="#8a8a8a" textLength="19.2" lengthAdjust="spacingAndGlyphs">ほ</text>
<text x="584.0" y="131" fill="#8a8a8a" textLength="19.2" lengthAdjust="spacingAndGlyphs">か</text>
<text x="603.2" y="131" fill="#8a8a8a" textLength="19.2" lengthAdjust="spacingAndGlyphs">の</text>
<text x="622.4" y="131" fill="#8a8a8a" textLength="19.2" lengthAdjust="spacingAndGlyphs">サ</text>
<text x="641.6" y="131" fill="#8a8a8a" textLength="19.2" lengthAdjust="spacingAndGlyphs">ー</text>
<text x="660.8" y="131" fill="#8a8a8a" textLength="19.2" lengthAdjust="spacingAndGlyphs">バ</text>
<text x="680.0" y="131" fill="#8a8a8a" textLength="19.2" lengthAdjust="spacingAndGlyphs">ー</text>
<text x="708.8" y="131" fill="#8a8a8a">2</text>
<text x="728.0" y="131" fill="#8a8a8a" textLength="19.2" lengthAdjust="spacingAndGlyphs">件</text>
<text x="747.2" y="131" fill="#8a8a8a" textLength="19.2" lengthAdjust="spacingAndGlyphs">は</text>
<text x="766.4" y="131" fill="#8a8a8a" textLength="19.2" lengthAdjust="spacingAndGlyphs">そ</text>
<text x="785.6" y="131" fill="#8a8a8a" textLength="19.2" lengthAdjust="spacingAndGlyphs">の</text>
<text x="804.8" y="131" fill="#8a8a8a" textLength="19.2" lengthAdjust="spacingAndGlyphs">ま</text>
<text x="824.0" y="131" fill="#8a8a8a" textLength="19.2" lengthAdjust="spacingAndGlyphs">ま</text>
<text x="843.2" y="131" fill="#8a8a8a" textLength="19.2" lengthAdjust="spacingAndGlyphs">）</text>
<text x="27.2" y="151" fill="#4fc1ff" textLength="19.2" lengthAdjust="spacingAndGlyphs">追</text>
<text x="46.4" y="151" fill="#4fc1ff" textLength="19.2" lengthAdjust="spacingAndGlyphs">記</text>
<text x="65.6" y="151" fill="#4fc1ff" textLength="19.2" lengthAdjust="spacingAndGlyphs">し</text>
<text x="84.8" y="151" fill="#4fc1ff" textLength="19.2" lengthAdjust="spacingAndGlyphs">た</text>
<text x="113.6" y="151" fill="#d4d4d4">.</text>
<text x="123.2" y="151" fill="#d4d4d4">c</text>
<text x="132.8" y="151" fill="#d4d4d4">l</text>
<text x="142.4" y="151" fill="#d4d4d4">a</text>
<text x="152.0" y="151" fill="#d4d4d4">u</text>
<text x="161.6" y="151" fill="#d4d4d4">d</text>
<text x="171.2" y="151" fill="#d4d4d4">e</text>
<text x="180.8" y="151" fill="#d4d4d4">/</text>
<text x="190.4" y="151" fill="#d4d4d4">s</text>
<text x="200.0" y="151" fill="#d4d4d4">e</text>
<text x="209.6" y="151" fill="#d4d4d4">t</text>
<text x="219.2" y="151" fill="#d4d4d4">t</text>
<text x="228.8" y="151" fill="#d4d4d4">i</text>
<text x="238.4" y="151" fill="#d4d4d4">n</text>
<text x="248.0" y="151" fill="#d4d4d4">g</text>
<text x="257.6" y="151" fill="#d4d4d4">s</text>
<text x="267.2" y="151" fill="#d4d4d4">.</text>
<text x="276.8" y="151" fill="#d4d4d4">j</text>
<text x="286.4" y="151" fill="#d4d4d4">s</text>
<text x="296.0" y="151" fill="#d4d4d4">o</text>
<text x="305.6" y="151" fill="#d4d4d4">n</text>
<text x="324.8" y="151" fill="#8a8a8a">h</text>
<text x="334.4" y="151" fill="#8a8a8a">o</text>
<text x="344.0" y="151" fill="#8a8a8a">o</text>
<text x="353.6" y="151" fill="#8a8a8a">k</text>
<text x="372.8" y="151" fill="#8a8a8a" textLength="19.2" lengthAdjust="spacingAndGlyphs">と</text>
<text x="392.0" y="151" fill="#8a8a8a" textLength="19.2" lengthAdjust="spacingAndGlyphs">禁</text>
<text x="411.2" y="151" fill="#8a8a8a" textLength="19.2" lengthAdjust="spacingAndGlyphs">止</text>
<text x="430.4" y="151" fill="#8a8a8a" textLength="19.2" lengthAdjust="spacingAndGlyphs">を</text>
<text x="449.6" y="151" fill="#8a8a8a" textLength="19.2" lengthAdjust="spacingAndGlyphs">足</text>
<text x="468.8" y="151" fill="#8a8a8a" textLength="19.2" lengthAdjust="spacingAndGlyphs">し</text>
<text x="488.0" y="151" fill="#8a8a8a" textLength="19.2" lengthAdjust="spacingAndGlyphs">ま</text>
<text x="507.2" y="151" fill="#8a8a8a" textLength="19.2" lengthAdjust="spacingAndGlyphs">し</text>
<text x="526.4" y="151" fill="#8a8a8a" textLength="19.2" lengthAdjust="spacingAndGlyphs">た</text>
<text x="545.6" y="151" fill="#8a8a8a" textLength="19.2" lengthAdjust="spacingAndGlyphs">（</text>
<text x="564.8" y="151" fill="#8a8a8a" textLength="19.2" lengthAdjust="spacingAndGlyphs">既</text>
<text x="584.0" y="151" fill="#8a8a8a" textLength="19.2" lengthAdjust="spacingAndGlyphs">存</text>
<text x="603.2" y="151" fill="#8a8a8a" textLength="19.2" lengthAdjust="spacingAndGlyphs">の</text>
<text x="622.4" y="151" fill="#8a8a8a" textLength="19.2" lengthAdjust="spacingAndGlyphs">設</text>
<text x="641.6" y="151" fill="#8a8a8a" textLength="19.2" lengthAdjust="spacingAndGlyphs">定</text>
<text x="660.8" y="151" fill="#8a8a8a" textLength="19.2" lengthAdjust="spacingAndGlyphs">は</text>
<text x="680.0" y="151" fill="#8a8a8a" textLength="19.2" lengthAdjust="spacingAndGlyphs">そ</text>
<text x="699.2" y="151" fill="#8a8a8a" textLength="19.2" lengthAdjust="spacingAndGlyphs">の</text>
<text x="718.4" y="151" fill="#8a8a8a" textLength="19.2" lengthAdjust="spacingAndGlyphs">ま</text>
<text x="737.6" y="151" fill="#8a8a8a" textLength="19.2" lengthAdjust="spacingAndGlyphs">ま</text>
<text x="756.8" y="151" fill="#8a8a8a" textLength="19.2" lengthAdjust="spacingAndGlyphs">）</text>
<text x="27.2" y="171" fill="#8a8a8a" textLength="19.2" lengthAdjust="spacingAndGlyphs">変</text>
<text x="46.4" y="171" fill="#8a8a8a" textLength="19.2" lengthAdjust="spacingAndGlyphs">更</text>
<text x="65.6" y="171" fill="#8a8a8a" textLength="19.2" lengthAdjust="spacingAndGlyphs">な</text>
<text x="84.8" y="171" fill="#8a8a8a" textLength="19.2" lengthAdjust="spacingAndGlyphs">し</text>
<text x="113.6" y="171" fill="#d4d4d4">.</text>
<text x="123.2" y="171" fill="#d4d4d4">g</text>
<text x="132.8" y="171" fill="#d4d4d4">i</text>
<text x="142.4" y="171" fill="#d4d4d4">t</text>
<text x="152.0" y="171" fill="#d4d4d4">i</text>
<text x="161.6" y="171" fill="#d4d4d4">g</text>
<text x="171.2" y="171" fill="#d4d4d4">n</text>
<text x="180.8" y="171" fill="#d4d4d4">o</text>
<text x="190.4" y="171" fill="#d4d4d4">r</text>
<text x="200.0" y="171" fill="#d4d4d4">e</text>
<text x="8.0" y="211" fill="#d4d4d4" textLength="19.2" lengthAdjust="spacingAndGlyphs">書</text>
<text x="27.2" y="211" fill="#d4d4d4" textLength="19.2" lengthAdjust="spacingAndGlyphs">き</text>
<text x="46.4" y="211" fill="#d4d4d4" textLength="19.2" lengthAdjust="spacingAndGlyphs">換</text>
<text x="65.6" y="211" fill="#d4d4d4" textLength="19.2" lengthAdjust="spacingAndGlyphs">え</text>
<text x="84.8" y="211" fill="#d4d4d4" textLength="19.2" lengthAdjust="spacingAndGlyphs">る</text>
<text x="104.0" y="211" fill="#d4d4d4" textLength="19.2" lengthAdjust="spacingAndGlyphs">前</text>
<text x="123.2" y="211" fill="#d4d4d4" textLength="19.2" lengthAdjust="spacingAndGlyphs">の</text>
<text x="142.4" y="211" fill="#d4d4d4" textLength="19.2" lengthAdjust="spacingAndGlyphs">内</text>
<text x="161.6" y="211" fill="#d4d4d4" textLength="19.2" lengthAdjust="spacingAndGlyphs">容</text>
<text x="180.8" y="211" fill="#d4d4d4" textLength="19.2" lengthAdjust="spacingAndGlyphs">は</text>
<text x="209.6" y="211" fill="#d4d4d4">.</text>
<text x="219.2" y="211" fill="#d4d4d4">s</text>
<text x="228.8" y="211" fill="#d4d4d4">r</text>
<text x="238.4" y="211" fill="#d4d4d4">w</text>
<text x="248.0" y="211" fill="#d4d4d4">r</text>
<text x="257.6" y="211" fill="#d4d4d4">/</text>
<text x="267.2" y="211" fill="#d4d4d4">i</text>
<text x="276.8" y="211" fill="#d4d4d4">n</text>
<text x="286.4" y="211" fill="#d4d4d4">i</text>
<text x="296.0" y="211" fill="#d4d4d4">t</text>
<text x="305.6" y="211" fill="#d4d4d4">-</text>
<text x="315.2" y="211" fill="#d4d4d4">b</text>
<text x="324.8" y="211" fill="#d4d4d4">a</text>
<text x="334.4" y="211" fill="#d4d4d4">c</text>
<text x="344.0" y="211" fill="#d4d4d4">k</text>
<text x="353.6" y="211" fill="#d4d4d4">u</text>
<text x="363.2" y="211" fill="#d4d4d4">p</text>
<text x="372.8" y="211" fill="#d4d4d4">/</text>
<text x="382.4" y="211" fill="#d4d4d4">2</text>
<text x="392.0" y="211" fill="#d4d4d4">0</text>
<text x="401.6" y="211" fill="#d4d4d4">2</text>
<text x="411.2" y="211" fill="#d4d4d4">6</text>
<text x="420.8" y="211" fill="#d4d4d4">1</text>
<text x="430.4" y="211" fill="#d4d4d4">0</text>
<text x="440.0" y="211" fill="#d4d4d4">0</text>
<text x="449.6" y="211" fill="#d4d4d4">3</text>
<text x="459.2" y="211" fill="#d4d4d4">-</text>
<text x="468.8" y="211" fill="#d4d4d4">1</text>
<text x="478.4" y="211" fill="#d4d4d4">7</text>
<text x="488.0" y="211" fill="#d4d4d4">1</text>
<text x="497.6" y="211" fill="#d4d4d4">2</text>
<text x="507.2" y="211" fill="#d4d4d4">0</text>
<text x="516.8" y="211" fill="#d4d4d4">4</text>
<text x="526.4" y="211" fill="#d4d4d4">/</text>
<text x="545.6" y="211" fill="#d4d4d4" textLength="19.2" lengthAdjust="spacingAndGlyphs">に</text>
<text x="564.8" y="211" fill="#d4d4d4" textLength="19.2" lengthAdjust="spacingAndGlyphs">残</text>
<text x="584.0" y="211" fill="#d4d4d4" textLength="19.2" lengthAdjust="spacingAndGlyphs">し</text>
<text x="603.2" y="211" fill="#d4d4d4" textLength="19.2" lengthAdjust="spacingAndGlyphs">ま</text>
<text x="622.4" y="211" fill="#d4d4d4" textLength="19.2" lengthAdjust="spacingAndGlyphs">し</text>
<text x="641.6" y="211" fill="#d4d4d4" textLength="19.2" lengthAdjust="spacingAndGlyphs">た</text>
<text x="660.8" y="211" fill="#d4d4d4" textLength="19.2" lengthAdjust="spacingAndGlyphs">。</text>
<text x="8.0" y="231" fill="#d4d4d4" textLength="19.2" lengthAdjust="spacingAndGlyphs">準</text>
<text x="27.2" y="231" fill="#d4d4d4" textLength="19.2" lengthAdjust="spacingAndGlyphs">備</text>
<text x="46.4" y="231" fill="#d4d4d4" textLength="19.2" lengthAdjust="spacingAndGlyphs">で</text>
<text x="65.6" y="231" fill="#d4d4d4" textLength="19.2" lengthAdjust="spacingAndGlyphs">き</text>
<text x="84.8" y="231" fill="#d4d4d4" textLength="19.2" lengthAdjust="spacingAndGlyphs">ま</text>
<text x="104.0" y="231" fill="#d4d4d4" textLength="19.2" lengthAdjust="spacingAndGlyphs">し</text>
<text x="123.2" y="231" fill="#d4d4d4" textLength="19.2" lengthAdjust="spacingAndGlyphs">た</text>
<text x="142.4" y="231" fill="#d4d4d4" textLength="19.2" lengthAdjust="spacingAndGlyphs">。</text>
<text x="161.6" y="231" fill="#d4d4d4">C</text>
<text x="171.2" y="231" fill="#d4d4d4">l</text>
<text x="180.8" y="231" fill="#d4d4d4">a</text>
<text x="190.4" y="231" fill="#d4d4d4">u</text>
<text x="200.0" y="231" fill="#d4d4d4">d</text>
<text x="209.6" y="231" fill="#d4d4d4">e</text>
<text x="228.8" y="231" fill="#d4d4d4">C</text>
<text x="238.4" y="231" fill="#d4d4d4">o</text>
<text x="248.0" y="231" fill="#d4d4d4">d</text>
<text x="257.6" y="231" fill="#d4d4d4">e</text>
<text x="276.8" y="231" fill="#d4d4d4" textLength="19.2" lengthAdjust="spacingAndGlyphs">を</text>
<text x="296.0" y="231" fill="#d4d4d4" textLength="19.2" lengthAdjust="spacingAndGlyphs">開</text>
<text x="315.2" y="231" fill="#d4d4d4" textLength="19.2" lengthAdjust="spacingAndGlyphs">き</text>
<text x="334.4" y="231" fill="#d4d4d4" textLength="19.2" lengthAdjust="spacingAndGlyphs">直</text>
<text x="353.6" y="231" fill="#d4d4d4" textLength="19.2" lengthAdjust="spacingAndGlyphs">す</text>
<text x="372.8" y="231" fill="#d4d4d4" textLength="19.2" lengthAdjust="spacingAndGlyphs">と</text>
<text x="392.0" y="231" fill="#d4d4d4" textLength="19.2" lengthAdjust="spacingAndGlyphs">、</text>
<text x="411.2" y="231" fill="#d4d4d4">s</text>
<text x="420.8" y="231" fill="#d4d4d4">e</text>
<text x="430.4" y="231" fill="#d4d4d4">l</text>
<text x="440.0" y="231" fill="#d4d4d4">e</text>
<text x="449.6" y="231" fill="#d4d4d4">c</text>
<text x="459.2" y="231" fill="#d4d4d4">t</text>
<text x="478.4" y="231" fill="#d4d4d4">/</text>
<text x="497.6" y="231" fill="#d4d4d4">r</text>
<text x="507.2" y="231" fill="#d4d4d4">e</text>
<text x="516.8" y="231" fill="#d4d4d4">p</text>
<text x="526.4" y="231" fill="#d4d4d4">l</text>
<text x="536.0" y="231" fill="#d4d4d4">a</text>
<text x="545.6" y="231" fill="#d4d4d4">c</text>
<text x="555.2" y="231" fill="#d4d4d4">e</text>
<text x="574.4" y="231" fill="#d4d4d4" textLength="19.2" lengthAdjust="spacingAndGlyphs">が</text>
<text x="593.6" y="231" fill="#d4d4d4" textLength="19.2" lengthAdjust="spacingAndGlyphs">使</text>
<text x="612.8" y="231" fill="#d4d4d4" textLength="19.2" lengthAdjust="spacingAndGlyphs">え</text>
<text x="632.0" y="231" fill="#d4d4d4" textLength="19.2" lengthAdjust="spacingAndGlyphs">ま</text>
<text x="651.2" y="231" fill="#d4d4d4" textLength="19.2" lengthAdjust="spacingAndGlyphs">す</text>
<text x="670.4" y="231" fill="#d4d4d4" textLength="19.2" lengthAdjust="spacingAndGlyphs">。</text>
</svg>
