<svg xmlns="http://www.w3.org/2000/svg" width="918" height="144" viewBox="0 0 918 144" role="img" aria-label="srwr init：設定が JSON として読めないとき（何も変えずに止まる）（light）" font-family="'DejaVu Sans Mono','Menlo','Consolas','Noto Sans Mono CJK JP','Noto Sans JP','Meiryo',monospace" font-size="16" white-space="pre">
<rect width="918" height="144" fill="#ffffff"/>
<rect width="918" height="28" fill="#e8e8e8"/>
<text x="12" y="19" fill="#767676" font-size="13" style="white-space:pre">srwr init：設定が JSON として読めないとき（何も変えずに止まる）</text>
<text x="8.0" y="51" fill="#767676">$</text>
<text x="27.2" y="51" fill="#795e26">s</text>
<text x="36.8" y="51" fill="#795e26">r</text>
<text x="46.4" y="51" fill="#795e26">w</text>
<text x="56.0" y="51" fill="#795e26">r</text>
<text x="75.2" y="51" fill="#795e26">i</text>
<text x="84.8" y="51" fill="#795e26">n</text>
<text x="94.4" y="51" fill="#795e26">i</text>
<text x="104.0" y="51" fill="#795e26">t</text>
<text x="8.0" y="71" fill="#c62828">s</text>
<text x="17.6" y="71" fill="#c62828">r</text>
<text x="27.2" y="71" fill="#c62828">w</text>
<text x="36.8" y="71" fill="#c62828">r</text>
<text x="56.0" y="71" fill="#c62828">i</text>
<text x="65.6" y="71" fill="#c62828">n</text>
<text x="75.2" y="71" fill="#c62828">i</text>
<text x="84.8" y="71" fill="#c62828">t</text>
<text x="94.4" y="71" fill="#c62828">:</text>
<text x="113.6" y="71" fill="#c62828">.</text>
<text x="123.2" y="71" fill="#c62828">c</text>
<text x="132.8" y="71" fill="#c62828">l</text>
<text x="142.4" y="71" fill="#c62828">a</text>
<text x="152.0" y="71" fill="#c62828">u</text>
<text x="161.6" y="71" fill="#c62828">d</text>
<text x="171.2" y="71" fill="#c62828">e</text>
<text x="180.8" y="71" fill="#c62828">/</text>
<text x="190.4" y="71" fill="#c62828">s</text>
<text x="200.0" y="71" fill="#c62828">e</text>
<text x="209.6" y="71" fill="#c62828">t</text>
<text x="219.2" y="71" fill="#c62828">t</text>
<text x="228.8" y="71" fill="#c62828">i</text>
<text x="238.4" y="71" fill="#c62828">n</text>
<text x="248.0" y="71" fill="#c62828">g</text>
<text x="257.6" y="71" fill="#c62828">s</text>
<text x="267.2" y="71" fill="#c62828">.</text>
<text x="276.8" y="71" fill="#c62828">j</text>
<text x="286.4" y="71" fill="#c62828">s</text>
<text x="296.0" y="71" fill="#c62828">o</text>
<text x="305.6" y="71" fill="#c62828">n</text>
<text x="324.8" y="71" fill="#c62828" textLength="19.2" lengthAdjust="spacingAndGlyphs">を</text>
<text x="353.6" y="71" fill="#c62828">J</text>
<text x="363.2" y="71" fill="#c62828">S</text>
<text x="372.8" y="71" fill="#c62828">O</text>
<text x="382.4" y="71" fill="#c62828">N</text>
<text x="401.6" y="71" fill="#c62828" textLength="19.2" lengthAdjust="spacingAndGlyphs">と</text>
<text x="420.8" y="71" fill="#c62828" textLength="19.2" lengthAdjust="spacingAndGlyphs">し</text>
<text x="440.0" y="71" fill="#c62828" textLength="19.2" lengthAdjust="spacingAndGlyphs">て</text>
<text x="459.2" y="71" fill="#c62828" textLength="19.2" lengthAdjust="spacingAndGlyphs">読</text>
<text x="478.4" y="71" fill="#c62828" textLength="19.2" lengthAdjust="spacingAndGlyphs">め</text>
<text x="497.6" y="71" fill="#c62828" textLength="19.2" lengthAdjust="spacingAndGlyphs">ま</text>
<text x="516.8" y="71" fill="#c62828" textLength="19.2" lengthAdjust="spacingAndGlyphs">せ</text>
<text x="536.0" y="71" fill="#c62828" textLength="19.2" lengthAdjust="spacingAndGlyphs">ん</text>
<text x="555.2" y="71" fill="#c62828" textLength="19.2" lengthAdjust="spacingAndGlyphs">（</text>
<text x="574.4" y="71" fill="#c62828">3</text>
<text x="593.6" y="71" fill="#c62828" textLength="19.2" lengthAdjust="spacingAndGlyphs">行</text>
<text x="612.8" y="71" fill="#c62828" textLength="19.2" lengthAdjust="spacingAndGlyphs">目</text>
<text x="632.0" y="71" fill="#c62828">:</text>
<text x="651.2" y="71" fill="#c62828" textLength="19.2" lengthAdjust="spacingAndGlyphs">区</text>
<text x="670.4" y="71" fill="#c62828" textLength="19.2" lengthAdjust="spacingAndGlyphs">切</text>
<text x="689.6" y="71" fill="#c62828" textLength="19.2" lengthAdjust="spacingAndGlyphs">り</text>
<text x="708.8" y="71" fill="#c62828" textLength="19.2" lengthAdjust="spacingAndGlyphs">の</text>
<text x="737.6" y="71" fill="#c62828">,</text>
<text x="756.8" y="71" fill="#c62828" textLength="19.2" lengthAdjust="spacingAndGlyphs">が</text>
<text x="776.0" y="71" fill="#c62828" textLength="19.2" lengthAdjust="spacingAndGlyphs">あ</text>
<text x="795.2" y="71" fill="#c62828" textLength="19.2" lengthAdjust="spacingAndGlyphs">り</text>
<text x="814.4" y="71" fill="#c62828" textLength="19.2" lengthAdjust="spacingAndGlyphs">ま</text>
<text x="833.6" y="71" fill="#c62828" textLength="19.2" lengthAdjust="spacingAndGlyphs">せ</text>
<text x="852.8" y="71" fill="#c62828" textLength="19.2" lengthAdjust="spacingAndGlyphs">ん</text>
<text x="872.0" y="71" fill="#c62828" textLength="19.2" lengthAdjust="spacingAndGlyphs">）</text>
<text x="8.0" y="91" fill="#1e1e1e" textLength="19.2" lengthAdjust="spacingAndGlyphs">何</text>
<text x="27.2" y="91" fill="#1e1e1e" textLength="19.2" lengthAdjust="spacingAndGlyphs">も</text>
<text x="46.4" y="91" fill="#1e1e1e" textLength="19.2" lengthAdjust="spacingAndGlyphs">書</text>
<text x="65.6" y="91" fill="#1e1e1e" textLength="19.2" lengthAdjust="spacingAndGlyphs">き</text>
<text x="84.8" y="91" fill="#1e1e1e" textLength="19.2" lengthAdjust="spacingAndGlyphs">換</text>
<text x="104.0" y="91" fill="#1e1e1e" textLength="19.2" lengthAdjust="spacingAndGlyphs">え</text>
<text x="123.2" y="91" fill="#1e1e1e" textLength="19.2" lengthAdjust="spacingAndGlyphs">て</text>
<text x="142.4" y="91" fill="#1e1e1e" textLength="19.2" lengthAdjust="spacingAndGlyphs">い</text>
<text x="161.6" y="91" fill="#1e1e1e" textLength="19.2" lengthAdjust="spacingAndGlyphs">ま</text>
<text x="180.8" y="91" fill="#1e1e1e" textLength="19.2" lengthAdjust="spacingAndGlyphs">せ</text>
<text x="200.0" y="91" fill="#1e1e1e" textLength="19.2" lengthAdjust="spacingAndGlyphs">ん</text>
<text x="219.2" y="91" fill="#1e1e1e" textLength="19.2" lengthAdjust="spacingAndGlyphs">。</text>
<text x="238.4" y="91" fill="#1e1e1e" textLength="19.2" lengthAdjust="spacingAndGlyphs">直</text>
<text x="257.6" y="91" fill="#1e1e1e" textLength="19.2" lengthAdjust="spacingAndGlyphs">し</text>
<text x="276.8" y="91" fill="#1e1e1e" textLength="19.2" lengthAdjust="spacingAndGlyphs">て</text>
<text x="296.0" y="91" fill="#1e1e1e" textLength="19.2" lengthAdjust="spacingAndGlyphs">か</text>
<text x="315.2" y="91" fill="#1e1e1e" textLength="19.2" lengthAdjust="spacingAndGlyphs">ら</text>
<text x="334.4" y="91" fill="#1e1e1e" textLength="19.2" lengthAdjust="spacingAndGlyphs">、</text>
<text x="353.6" y="91" fill="#1e1e1e" textLength="19.2" lengthAdjust="spacingAndGlyphs">も</text>
<text x="372.8" y="91" fill="#1e1e1e" textLength="19.2" lengthAdjust="spacingAndGlyphs">う</text>
<text x="392.0" y="91" fill="#1e1e1e" textLength="19.2" lengthAdjust="spacingAndGlyphs">一</text>
<text x="411.2" y="91" fill="#1e1e1e" textLength="19.2" lengthAdjust="spacingAndGlyphs">度</text>
<text x="430.4" y="91" fill="#1e1e1e" textLength="19.2" lengthAdjust="spacingAndGlyphs">実</text>
<text x="449.6" y="91" fill="#1e1e1e" textLength="19.2" lengthAdjust="spacingAndGlyphs">行</text>
<text x="468.8" y="91" fill="#1e1e1e" textLength="19.2" lengthAdjust="spacingAndGlyphs">し</text>
<text x="488.0" y="91" fill="#1e1e1e" textLength="19.2" lengthAdjust="spacingAndGlyphs">て</text>
<text x="507.2" y="91" fill="#1e1e1e" textLength="19.2" lengthAdjust="spacingAndGlyphs">く</text>
<text x="526.4" y="91" fill="#1e1e1e" textLength="19.2" lengthAdjust="spacingAndGlyphs">だ</text>
<text x="545.6" y="91" fill="#1e1e1e" textLength="19.2" lengthAdjust="spacingAndGlyphs">さ</text>
<text x="564.8" y="91" fill="#1e1e1e" textLength="19.2" lengthAdjust="spacingAndGlyphs">い</text>
<text x="584.0" y="91" fill="#1e1e1e" textLength="19.2" lengthAdjust="spacingAndGlyphs">。</text>
<text x="8.0" y="111" fill="#767676">$</text>
<text x="27.2" y="111" fill="#795e26">e</text>
<text x="36.8" y="111" fill="#795e26">c</text>
<text x="46.4" y="111" fill="#795e26">h</text>
<text x="56.0" y="111" fill="#795e26">o</text>
<text x="75.2" y="111" fill="#795e26">$</text>
<text x="84.8" y="111" fill="#795e26">?</text>
<text x="8.0" y="131" fill="#1e1e1e">1</text>
</svg>
